# MagicaVoxel @ Ephtracy

# group
o 

# material
mtllib FireProjectile.mtl
usemtl palette

# normals
vn -1 0 0
vn 1 0 0
vn 0 0 1
vn 0 0 -1
vn 0 -1 0
vn 0 1 0

# texcoords
vt 0.146484 0.5
vt 0.208984 0.5
vt 0.373047 0.5

# verts
v 0 0 0
v 0 0 -0.1
v 0 0.1 0.1
v 0 0.1 0
v 0 0.1 -0.1
v 0 0.2 0.1
v 0 0.2 0
v 0 0.2 -0.1
v 0 0.3 0
v 0 0.3 -0.1
v 0.1 0.3 0
v 0.1 0.3 -0.1
v 0.1 0.4 0
v 0.1 0.4 -0.1
v 0.1 0 0
v 0.1 0 -0.1
v 0.1 0.1 0
v 0.1 0.1 -0.1
v 0.2 0.1 0.1
v 0.2 0.1 0
v 0.2 0.1 -0.1
v 0.2 0.2 0.1
v 0.2 0.2 0
v 0.2 0.2 -0.1
v 0.2 0.4 0
v 0.2 0.4 -0.1
v 0 0.1 0.1
v 0 0.2 0.1
v 0.2 0.1 0.1
v 0.2 0.2 0.1
v 0 0 0
v 0 0.1 0
v 0 0.2 0
v 0 0.3 0
v 0.1 0 0
v 0.1 0.1 0
v 0.1 0.2 0
v 0.1 0.3 0
v 0.1 0.4 0
v 0.2 0.2 0
v 0.2 0.4 0
v 0 0 -0.1
v 0 0.1 -0.1
v 0 0.2 -0.1
v 0 0.3 -0.1
v 0.1 0 -0.1
v 0.1 0.1 -0.1
v 0.1 0.2 -0.1
v 0.1 0.3 -0.1
v 0.1 0.4 -0.1
v 0.2 0.1 -0.1
v 0.2 0.2 -0.1
v 0.2 0.4 -0.1
v 0 0 0
v 0.1 0 0
v 0 0 -0.1
v 0.1 0 -0.1
v 0 0.1 0.1
v 0.2 0.1 0.1
v 0 0.1 0
v 0.1 0.1 0
v 0.2 0.1 0
v 0.1 0.1 -0.1
v 0.2 0.1 -0.1
v 0 0.2 0.1
v 0.2 0.2 0.1
v 0 0.2 0
v 0.1 0.2 0
v 0.2 0.2 0
v 0 0.3 0
v 0.1 0.3 0
v 0 0.3 -0.1
v 0.1 0.3 -0.1
v 0.1 0.4 0
v 0.2 0.4 0
v 0.1 0.4 -0.1
v 0.2 0.4 -0.1

# faces
f 4/1/1 2/1/1 1/1/1
f 5/1/1 2/1/1 4/1/1
f 6/1/1 4/1/1 3/1/1
f 7/3/1 5/3/1 4/3/1
f 7/1/1 4/1/1 6/1/1
f 8/3/1 5/3/1 7/3/1
f 9/2/1 8/2/1 7/2/1
f 10/2/1 8/2/1 9/2/1
f 13/1/1 12/1/1 11/1/1
f 14/1/1 12/1/1 13/1/1
f 15/1/2 16/1/2 17/1/2
f 17/1/2 16/1/2 18/1/2
f 19/1/2 20/1/2 22/1/2
f 20/2/2 21/2/2 23/2/2
f 22/1/2 20/1/2 23/1/2
f 23/2/2 21/2/2 24/2/2
f 23/1/2 24/1/2 25/1/2
f 25/1/2 24/1/2 26/1/2
f 29/1/3 28/1/3 27/1/3
f 30/1/3 28/1/3 29/1/3
f 35/1/3 32/1/3 31/1/3
f 36/1/3 32/1/3 35/1/3
f 37/2/3 34/2/3 33/2/3
f 38/2/3 34/2/3 37/2/3
f 40/1/3 39/1/3 38/1/3
f 40/1/3 38/1/3 37/1/3
f 41/1/3 39/1/3 40/1/3
f 42/1/4 43/1/4 46/1/4
f 43/3/4 44/3/4 47/3/4
f 46/1/4 43/1/4 47/1/4
f 44/2/4 45/2/4 48/2/4
f 47/3/4 44/3/4 48/3/4
f 48/2/4 45/2/4 49/2/4
f 47/2/4 48/2/4 51/2/4
f 49/1/4 50/1/4 52/1/4
f 51/2/4 48/2/4 52/2/4
f 48/1/4 49/1/4 52/1/4
f 52/1/4 50/1/4 53/1/4
f 56/1/5 55/1/5 54/1/5
f 57/1/5 55/1/5 56/1/5
f 60/1/5 59/1/5 58/1/5
f 61/1/5 59/1/5 60/1/5
f 62/1/5 59/1/5 61/1/5
f 63/2/5 62/2/5 61/2/5
f 64/2/5 62/2/5 63/2/5
f 65/1/6 66/1/6 67/1/6
f 67/1/6 66/1/6 68/1/6
f 68/1/6 66/1/6 69/1/6
f 70/2/6 71/2/6 72/2/6
f 72/2/6 71/2/6 73/2/6
f 74/1/6 75/1/6 76/1/6
f 76/1/6 75/1/6 77/1/6
