# MagicaVoxel @ Ephtracy

# group
o 

# material
mtllib Gun.mtl
usemtl palette

# normals
vn -1 0 0
vn 1 0 0
vn 0 0 1
vn 0 0 -1
vn 0 -1 0
vn 0 1 0

# texcoords
vt 0.689453 0.5
vt 0.923828 0.5
vt 0.958984 0.5
vt 0.986328 0.5
vt 0.990234 0.5

# verts
v -0.5 0 -0.2
v -0.5 0 -0.3
v -0.5 0.1 -0.2
v -0.5 0.1 -0.3
v -0.5 0.3 -0.2
v -0.5 0.3 -0.3
v -0.5 0.4 -0.1
v -0.5 0.4 -0.4
v -0.5 0.6 -0.1
v -0.5 0.6 -0.4
v -0.4 0.3 -0.1
v -0.4 0.3 -0.2
v -0.4 0.3 -0.3
v -0.4 0.3 -0.4
v -0.4 0.4 -0.1
v -0.4 0.4 -0.4
v -0.3 0.6 -0.2
v -0.3 0.6 -0.3
v -0.3 0.7 -0.2
v -0.3 0.7 -0.3
v -0.2 0.6 -0.1
v -0.2 0.6 -0.2
v -0.2 0.6 -0.3
v -0.2 0.6 -0.4
v -0.2 0.7 -0.1
v -0.2 0.7 -0.2
v -0.2 0.7 -0.3
v -0.2 0.7 -0.4
v -0.1 0.4 -0.2
v -0.1 0.4 -0.3
v -0.1 0.5 -0.2
v -0.1 0.5 -0.3
v 0 0.5 -0.1
v 0 0.5 -0.2
v 0 0.5 -0.3
v 0 0.5 -0.4
v 0 0.6 -0.1
v 0 0.6 -0.2
v 0 0.6 -0.3
v 0 0.6 -0.4
v 0.1 0.7 -0.2
v 0.1 0.7 -0.3
v 0.1 0.8 -0.2
v 0.1 0.8 -0.3
v -0.3 0 -0.2
v -0.3 0 -0.3
v -0.3 0.1 -0.2
v -0.3 0.1 -0.3
v -0.3 0.3 -0.1
v -0.3 0.3 -0.2
v -0.3 0.3 -0.3
v -0.3 0.3 -0.4
v -0.3 0.5 -0.1
v -0.3 0.5 -0.2
v -0.3 0.5 -0.3
v -0.3 0.5 -0.4
v -0.2 0.1 -0.2
v -0.2 0.1 -0.3
v -0.2 0.3 -0.2
v -0.2 0.3 -0.3
v -0.2 0.4 -0.2
v -0.2 0.4 -0.3
v -0.2 0.5 -0.1
v -0.2 0.5 -0.2
v -0.2 0.5 -0.3
v -0.2 0.5 -0.4
v -0.2 0.6 -0.1
v -0.2 0.6 -0.2
v -0.2 0.6 -0.3
v -0.2 0.6 -0.4
v 0 0.3 -0.2
v 0 0.3 -0.3
v 0 0.4 -0.2
v 0 0.4 -0.3
v 0.4 0.7 -0.2
v 0.4 0.7 -0.3
v 0.4 0.8 -0.2
v 0.4 0.8 -0.3
v 0.6 0.4 -0.2
v 0.6 0.4 -0.3
v 0.6 0.5 -0.1
v 0.6 0.5 -0.2
v 0.6 0.5 -0.3
v 0.6 0.5 -0.4
v 0.6 0.6 -0.2
v 0.6 0.6 -0.3
v 0.6 0.7 -0.1
v 0.6 0.7 -0.4
v -0.5 0.4 -0.1
v -0.5 0.6 -0.1
v -0.4 0.3 -0.1
v -0.4 0.4 -0.1
v -0.3 0.3 -0.1
v -0.3 0.5 -0.1
v -0.3 0.6 -0.1
v -0.2 0.5 -0.1
v -0.2 0.6 -0.1
v -0.2 0.7 -0.1
v 0 0.5 -0.1
v 0 0.6 -0.1
v 0.1 0.6 -0.1
v 0.1 0.7 -0.1
v 0.4 0.6 -0.1
v 0.4 0.7 -0.1
v 0.5 0.5 -0.1
v 0.5 0.7 -0.1
v 0.6 0.5 -0.1
v 0.6 0.7 -0.1
v -0.5 0 -0.2
v -0.5 0.1 -0.2
v -0.5 0.3 -0.2
v -0.4 0.3 -0.2
v -0.3 0 -0.2
v -0.3 0.1 -0.2
v -0.3 0.3 -0.2
v -0.3 0.5 -0.2
v -0.3 0.6 -0.2
v -0.3 0.7 -0.2
v -0.2 0.1 -0.2
v -0.2 0.3 -0.2
v -0.2 0.4 -0.2
v -0.2 0.5 -0.2
v -0.2 0.6 -0.2
v -0.2 0.7 -0.2
v -0.1 0.4 -0.2
v -0.1 0.5 -0.2
v -0.1 0.6 -0.2
v 0 0.3 -0.2
v 0 0.4 -0.2
v 0 0.5 -0.2
v 0 0.6 -0.2
v 0.1 0.7 -0.2
v 0.1 0.8 -0.2
v 0.4 0.7 -0.2
v 0.4 0.8 -0.2
v 0.5 0.4 -0.2
v 0.5 0.5 -0.2
v 0.6 0.4 -0.2
v 0.6 0.5 -0.2
v -0.5 0 -0.3
v -0.5 0.1 -0.3
v -0.5 0.3 -0.3
v -0.4 0.3 -0.3
v -0.3 0 -0.3
v -0.3 0.1 -0.3
v -0.3 0.3 -0.3
v -0.3 0.5 -0.3
v -0.3 0.6 -0.3
v -0.3 0.7 -0.3
v -0.2 0.1 -0.3
v -0.2 0.3 -0.3
v -0.2 0.4 -0.3
v -0.2 0.5 -0.3
v -0.2 0.6 -0.3
v -0.2 0.7 -0.3
v -0.1 0.4 -0.3
v -0.1 0.5 -0.3
v -0.1 0.6 -0.3
v 0 0.3 -0.3
v 0 0.4 -0.3
v 0 0.5 -0.3
v 0 0.6 -0.3
v 0.1 0.7 -0.3
v 0.1 0.8 -0.3
v 0.4 0.7 -0.3
v 0.4 0.8 -0.3
v 0.5 0.4 -0.3
v 0.5 0.5 -0.3
v 0.6 0.4 -0.3
v 0.6 0.5 -0.3
v -0.5 0.4 -0.4
v -0.5 0.6 -0.4
v -0.4 0.3 -0.4
v -0.4 0.4 -0.4
v -0.3 0.3 -0.4
v -0.3 0.5 -0.4
v -0.3 0.6 -0.4
v -0.2 0.5 -0.4
v -0.2 0.6 -0.4
v -0.2 0.7 -0.4
v 0 0.5 -0.4
v 0 0.6 -0.4
v 0.5 0.5 -0.4
v 0.5 0.7 -0.4
v 0.6 0.5 -0.4
v 0.6 0.7 -0.4
v -0.5 0 -0.2
v -0.3 0 -0.2
v -0.5 0 -0.3
v -0.3 0 -0.3
v -0.3 0.1 -0.2
v -0.2 0.1 -0.2
v -0.3 0.1 -0.3
v -0.2 0.1 -0.3
v -0.4 0.3 -0.1
v -0.3 0.3 -0.1
v -0.4 0.3 -0.2
v -0.3 0.3 -0.2
v -0.2 0.3 -0.2
v 0 0.3 -0.2
v -0.4 0.3 -0.3
v -0.3 0.3 -0.3
v -0.2 0.3 -0.3
v 0 0.3 -0.3
v -0.4 0.3 -0.4
v -0.3 0.3 -0.4
v -0.5 0.4 -0.1
v -0.4 0.4 -0.1
v 0 0.4 -0.2
v 0.5 0.4 -0.2
v 0.6 0.4 -0.2
v 0 0.4 -0.3
v 0.5 0.4 -0.3
v 0.6 0.4 -0.3
v -0.5 0.4 -0.4
v -0.4 0.4 -0.4
v -0.3 0.5 -0.1
v -0.2 0.5 -0.1
v 0 0.5 -0.1
v 0.5 0.5 -0.1
v 0.6 0.5 -0.1
v -0.3 0.5 -0.2
v -0.2 0.5 -0.2
v -0.1 0.5 -0.2
v 0 0.5 -0.2
v 0.5 0.5 -0.2
v 0.6 0.5 -0.2
v -0.3 0.5 -0.3
v -0.2 0.5 -0.3
v -0.1 0.5 -0.3
v 0 0.5 -0.3
v 0.5 0.5 -0.3
v 0.6 0.5 -0.3
v -0.3 0.5 -0.4
v -0.2 0.5 -0.4
v 0 0.5 -0.4
v 0.5 0.5 -0.4
v 0.6 0.5 -0.4
v -0.2 0.6 -0.1
v 0 0.6 -0.1
v -0.2 0.6 -0.2
v -0.1 0.6 -0.2
v 0 0.6 -0.2
v -0.2 0.6 -0.3
v -0.1 0.6 -0.3
v 0 0.6 -0.3
v -0.2 0.6 -0.4
v 0 0.6 -0.4
v -0.5 0.3 -0.2
v -0.4 0.3 -0.2
v -0.5 0.3 -0.3
v -0.4 0.3 -0.3
v -0.2 0.4 -0.2
v -0.1 0.4 -0.2
v -0.2 0.4 -0.3
v -0.1 0.4 -0.3
v -0.5 0.6 -0.1
v -0.3 0.6 -0.1
v -0.2 0.6 -0.1
v -0.3 0.6 -0.2
v -0.2 0.6 -0.2
v -0.3 0.6 -0.3
v -0.2 0.6 -0.3
v -0.5 0.6 -0.4
v -0.3 0.6 -0.4
v -0.2 0.6 -0.4
v -0.2 0.7 -0.1
v 0.1 0.7 -0.1
v 0.4 0.7 -0.1
v 0.5 0.7 -0.1
v 0.6 0.7 -0.1
v -0.3 0.7 -0.2
v -0.2 0.7 -0.2
v 0.1 0.7 -0.2
v 0.4 0.7 -0.2
v -0.3 0.7 -0.3
v -0.2 0.7 -0.3
v 0.1 0.7 -0.3
v 0.4 0.7 -0.3
v -0.2 0.7 -0.4
v 0.5 0.7 -0.4
v 0.6 0.7 -0.4
v 0.1 0.8 -0.2
v 0.4 0.8 -0.2
v 0.1 0.8 -0.3
v 0.4 0.8 -0.3

# faces
f 3/2/1 2/2/1 1/2/1
f 4/2/1 2/2/1 3/2/1
f 5/3/1 4/3/1 3/3/1
f 6/3/1 4/3/1 5/3/1
f 9/3/1 8/3/1 7/3/1
f 10/3/1 8/3/1 9/3/1
f 15/3/1 12/3/1 11/3/1
f 15/3/1 14/3/1 13/3/1
f 15/3/1 13/3/1 12/3/1
f 16/3/1 14/3/1 15/3/1
f 19/2/1 18/2/1 17/2/1
f 20/2/1 18/2/1 19/2/1
f 25/3/1 22/3/1 21/3/1
f 26/3/1 22/3/1 25/3/1
f 27/3/1 24/3/1 23/3/1
f 28/3/1 24/3/1 27/3/1
f 31/1/1 30/1/1 29/1/1
f 32/1/1 30/1/1 31/1/1
f 37/3/1 34/3/1 33/3/1
f 38/3/1 34/3/1 37/3/1
f 39/3/1 36/3/1 35/3/1
f 40/3/1 36/3/1 39/3/1
f 43/3/1 42/3/1 41/3/1
f 44/3/1 42/3/1 43/3/1
f 45/2/2 46/2/2 47/2/2
f 47/2/2 46/2/2 48/2/2
f 49/3/2 50/3/2 53/3/2
f 53/3/2 50/3/2 54/3/2
f 51/3/2 52/3/2 55/3/2
f 55/3/2 52/3/2 56/3/2
f 57/3/2 58/3/2 59/3/2
f 59/3/2 58/3/2 60/3/2
f 61/2/2 62/2/2 64/2/2
f 64/2/2 62/2/2 65/2/2
f 63/2/2 64/2/2 67/2/2
f 67/2/2 64/2/2 68/2/2
f 65/2/2 66/2/2 69/2/2
f 69/2/2 66/2/2 70/2/2
f 71/1/2 72/1/2 73/1/2
f 73/1/2 72/1/2 74/1/2
f 75/3/2 76/3/2 77/3/2
f 77/3/2 76/3/2 78/3/2
f 79/4/2 80/4/2 82/4/2
f 82/4/2 80/4/2 83/4/2
f 81/4/2 82/4/2 85/4/2
f 82/5/2 83/5/2 85/5/2
f 83/4/2 84/4/2 86/4/2
f 85/5/2 83/5/2 86/5/2
f 81/4/2 85/4/2 87/4/2
f 85/4/2 86/4/2 87/4/2
f 86/4/2 84/4/2 88/4/2
f 87/4/2 86/4/2 88/4/2
f 92/3/3 90/3/3 89/3/3
f 93/3/3 92/3/3 91/3/3
f 94/3/3 90/3/3 92/3/3
f 94/3/3 92/3/3 93/3/3
f 95/3/3 90/3/3 94/3/3
f 96/2/3 95/2/3 94/2/3
f 97/2/3 95/2/3 96/2/3
f 100/3/3 98/3/3 97/3/3
f 101/3/3 98/3/3 100/3/3
f 101/3/3 100/3/3 99/3/3
f 102/3/3 98/3/3 101/3/3
f 103/3/3 101/3/3 99/3/3
f 103/1/3 102/1/3 101/1/3
f 104/1/3 102/1/3 103/1/3
f 105/3/3 103/3/3 99/3/3
f 105/3/3 104/3/3 103/3/3
f 106/3/3 104/3/3 105/3/3
f 107/4/3 106/4/3 105/4/3
f 108/4/3 106/4/3 107/4/3
f 112/3/3 111/3/3 110/3/3
f 113/2/3 110/2/3 109/2/3
f 114/3/3 112/3/3 110/3/3
f 114/2/3 110/2/3 113/2/3
f 115/3/3 112/3/3 114/3/3
f 119/3/3 115/3/3 114/3/3
f 120/2/3 116/2/3 115/2/3
f 120/3/3 115/3/3 119/3/3
f 121/2/3 116/2/3 120/2/3
f 122/2/3 116/2/3 121/2/3
f 123/2/3 118/2/3 117/2/3
f 124/2/3 118/2/3 123/2/3
f 125/1/3 121/1/3 120/1/3
f 126/2/3 123/2/3 122/2/3
f 127/2/3 123/2/3 126/2/3
f 128/1/3 125/1/3 120/1/3
f 128/1/3 126/1/3 125/1/3
f 129/1/3 126/1/3 128/1/3
f 130/3/3 127/3/3 126/3/3
f 130/1/3 126/1/3 129/1/3
f 131/3/3 127/3/3 130/3/3
f 134/3/3 133/3/3 132/3/3
f 135/3/3 133/3/3 134/3/3
f 136/3/3 130/3/3 129/3/3
f 137/3/3 130/3/3 136/3/3
f 138/4/3 137/4/3 136/4/3
f 139/4/3 137/4/3 138/4/3
f 141/3/4 142/3/4 143/3/4
f 140/2/4 141/2/4 144/2/4
f 141/3/4 143/3/4 145/3/4
f 144/2/4 141/2/4 145/2/4
f 145/3/4 143/3/4 146/3/4
f 145/3/4 146/3/4 150/3/4
f 146/2/4 147/2/4 151/2/4
f 150/3/4 146/3/4 151/3/4
f 151/2/4 147/2/4 152/2/4
f 152/2/4 147/2/4 153/2/4
f 148/2/4 149/2/4 154/2/4
f 154/2/4 149/2/4 155/2/4
f 151/1/4 152/1/4 156/1/4
f 153/2/4 154/2/4 157/2/4
f 157/2/4 154/2/4 158/2/4
f 151/1/4 156/1/4 159/1/4
f 156/1/4 157/1/4 159/1/4
f 159/1/4 157/1/4 160/1/4
f 157/3/4 158/3/4 161/3/4
f 160/1/4 157/1/4 161/1/4
f 161/3/4 158/3/4 162/3/4
f 163/3/4 164/3/4 165/3/4
f 165/3/4 164/3/4 166/3/4
f 160/3/4 161/3/4 167/3/4
f 167/3/4 161/3/4 168/3/4
f 167/4/4 168/4/4 169/4/4
f 169/4/4 168/4/4 170/4/4
f 171/3/4 172/3/4 174/3/4
f 173/3/4 174/3/4 175/3/4
f 174/3/4 172/3/4 176/3/4
f 175/3/4 174/3/4 176/3/4
f 176/3/4 172/3/4 177/3/4
f 176/2/4 177/2/4 178/2/4
f 178/2/4 177/2/4 179/2/4
f 179/3/4 180/3/4 182/3/4
f 181/3/4 182/3/4 183/3/4
f 182/3/4 180/3/4 184/3/4
f 183/3/4 182/3/4 184/3/4
f 183/4/4 184/4/4 185/4/4
f 185/4/4 184/4/4 186/4/4
f 189/2/5 188/2/5 187/2/5
f 190/2/5 188/2/5 189/2/5
f 193/3/5 192/3/5 191/3/5
f 194/3/5 192/3/5 193/3/5
f 197/3/5 196/3/5 195/3/5
f 198/3/5 196/3/5 197/3/5
f 203/1/5 200/1/5 199/1/5
f 204/1/5 200/1/5 203/1/5
f 205/3/5 202/3/5 201/3/5
f 206/3/5 202/3/5 205/3/5
f 212/3/5 210/3/5 209/3/5
f 213/4/5 211/4/5 210/4/5
f 213/3/5 210/3/5 212/3/5
f 214/4/5 211/4/5 213/4/5
f 215/3/5 208/3/5 207/3/5
f 216/3/5 208/3/5 215/3/5
f 222/2/5 218/2/5 217/2/5
f 223/2/5 218/2/5 222/2/5
f 225/3/5 220/3/5 219/3/5
f 226/4/5 221/4/5 220/4/5
f 226/3/5 220/3/5 225/3/5
f 227/4/5 221/4/5 226/4/5
f 229/2/5 224/2/5 223/2/5
f 230/2/5 224/2/5 229/2/5
f 234/2/5 229/2/5 228/2/5
f 235/2/5 229/2/5 234/2/5
f 236/3/5 232/3/5 231/3/5
f 237/4/5 233/4/5 232/4/5
f 237/3/5 232/3/5 236/3/5
f 238/4/5 233/4/5 237/4/5
f 241/3/5 240/3/5 239/3/5
f 242/3/5 240/3/5 241/3/5
f 243/3/5 240/3/5 242/3/5
f 247/3/5 245/3/5 244/3/5
f 247/3/5 246/3/5 245/3/5
f 248/3/5 246/3/5 247/3/5
f 249/3/6 250/3/6 251/3/6
f 251/3/6 250/3/6 252/3/6
f 253/1/6 254/1/6 255/1/6
f 255/1/6 254/1/6 256/1/6
f 257/3/6 258/3/6 260/3/6
f 258/2/6 259/2/6 260/2/6
f 260/2/6 259/2/6 261/2/6
f 257/3/6 260/3/6 262/3/6
f 257/3/6 262/3/6 264/3/6
f 262/2/6 263/2/6 265/2/6
f 264/3/6 262/3/6 265/3/6
f 265/2/6 263/2/6 266/2/6
f 267/3/6 268/3/6 273/3/6
f 268/1/6 269/1/6 274/1/6
f 273/3/6 268/3/6 274/3/6
f 269/3/6 270/3/6 275/3/6
f 274/1/6 269/1/6 275/1/6
f 272/2/6 273/2/6 276/2/6
f 273/3/6 274/3/6 277/3/6
f 276/2/6 273/2/6 277/2/6
f 277/3/6 274/3/6 278/3/6
f 275/3/6 270/3/6 279/3/6
f 277/3/6 278/3/6 280/3/6
f 278/3/6 279/3/6 280/3/6
f 270/4/6 271/4/6 281/4/6
f 280/3/6 279/3/6 281/3/6
f 279/3/6 270/3/6 281/3/6
f 281/4/6 271/4/6 282/4/6
f 283/3/6 284/3/6 285/3/6
f 285/3/6 284/3/6 286/3/6
